HIERARCHY
ROOT newVegas:Hips
{
	OFFSET 0.000000 96.479958 0.000000
	CHANNELS 6 Xposition Yposition Zposition Xrotation Yrotation Zrotation
	JOINT newVegas:Pelvis
	{
		OFFSET 0.000000 0.000000 0.000000
		CHANNELS 3 Xrotation Yrotation Zrotation
		JOINT newVegas:LeftUpLeg
		{
			OFFSET 18.735201 -5.666702 -4.541200
			CHANNELS 3 Xrotation Yrotation Zrotation
			JOINT newVegas:LeftLeg
			{
				OFFSET -0.021200 -31.938179 0.493100
				CHANNELS 3 Xrotation Yrotation Zrotation
				JOINT newVegas:LeftFoot
				{
					OFFSET 0.021200 -31.938179 -4.336299
					CHANNELS 3 Xrotation Yrotation Zrotation
					JOINT newVegas:LeftToeBase
					{
						OFFSET 0.943001 -26.722000 15.023500
						CHANNELS 3 Xrotation Yrotation Zrotation
						End Site
						{
							OFFSET 0.000000 30.670183 0.000000
						}
					}
				}
				JOINT newVegas:Left_PantLeg
				{
					OFFSET 0.663870 -9.044666 -1.108900
					CHANNELS 3 Xrotation Yrotation Zrotation
					End Site
					{
						OFFSET 1.415995 20.635357 0.000000
					}
				}
			}
		}
		JOINT newVegas:RightUpLeg
		{
			OFFSET -18.735201 -5.666702 -4.541200
			CHANNELS 3 Xrotation Yrotation Zrotation
			JOINT newVegas:RightLeg
			{
				OFFSET 0.018946 -31.938133 0.493100
				CHANNELS 3 Xrotation Yrotation Zrotation
				JOINT newVegas:RightFoot
				{
					OFFSET -0.018946 -31.938126 -4.336299
					CHANNELS 3 Xrotation Yrotation Zrotation
					JOINT newVegas:RightToeBase
					{
						OFFSET -0.943001 -26.722004 15.023500
						CHANNELS 3 Xrotation Yrotation Zrotation
						End Site
						{
							OFFSET 0.000000 30.670187 0.000000
						}
					}
				}
				JOINT newVegas:Right_PantLeg
				{
					OFFSET -0.661674 -9.044716 -1.108900
					CHANNELS 3 Xrotation Yrotation Zrotation
					End Site
					{
						OFFSET -1.415958 20.635269 0.000000
					}
				}
			}
		}
	}
	JOINT newVegas:Spine
	{
		OFFSET 0.000000 10.199997 -0.299500
		CHANNELS 3 Xrotation Yrotation Zrotation
		JOINT newVegas:Spine1
		{
			OFFSET 0.000000 11.900002 -1.516600
			CHANNELS 3 Xrotation Yrotation Zrotation
			JOINT newVegas:Spine2
			{
				OFFSET 0.000000 13.600006 -2.842500
				CHANNELS 3 Xrotation Yrotation Zrotation
				JOINT newVegas:Neck
				{
					OFFSET 0.000000 9.624100 -2.890100
					CHANNELS 3 Xrotation Yrotation Zrotation
					JOINT newVegas:Head
					{
						OFFSET 0.000000 14.068802 -1.351900
						CHANNELS 3 Xrotation Yrotation Zrotation
						JOINT newVegas:Hair_Back
						{
							OFFSET 0.000000 3.231903 -17.524799
							CHANNELS 3 Xrotation Yrotation Zrotation
							End Site
							{
								OFFSET 0.000000 19.849884 0.000000
							}
						}
						JOINT newVegas:Hair_Front
						{
							OFFSET 0.000000 31.260406 4.573800
							CHANNELS 3 Xrotation Yrotation Zrotation
							JOINT newVegas:Hair_Front1
							{
								OFFSET 0.000000 2.284103 11.993300
								CHANNELS 3 Xrotation Yrotation Zrotation
								JOINT newVegas:Hair_Front2
								{
									OFFSET 0.000000 2.284103 11.993300
									CHANNELS 3 Xrotation Yrotation Zrotation
									End Site
									{
										OFFSET 0.000000 12.208862 0.000000
									}
								}
							}
						}
						JOINT newVegas:Jowel
						{
							OFFSET 0.000000 -7.458206 6.864100
							CHANNELS 3 Xrotation Yrotation Zrotation
							End Site
							{
								OFFSET 0.000000 19.849884 0.000000
							}
						}
					}
				}
				JOINT newVegas:LeftShoulder
				{
					OFFSET 15.263000 10.923401 -0.547700
					CHANNELS 3 Xrotation Yrotation Zrotation
					JOINT newVegas:LeftArm
					{
						OFFSET 25.438599 -2.830597 -13.032500
						CHANNELS 3 Xrotation Yrotation Zrotation
						JOINT newVegas:LeftForeArm
						{
							OFFSET 29.960503 0.000000 0.000000
							CHANNELS 3 Xrotation Yrotation Zrotation
							JOINT newVegas:LeftHand
							{
								OFFSET 27.849251 0.000000 0.000000
								CHANNELS 3 Xrotation Yrotation Zrotation
								JOINT newVegas:LeftHandThumb1
								{
									OFFSET 4.487587 -3.305161 6.305391
									CHANNELS 3 Xrotation Yrotation Zrotation
									JOINT newVegas:LeftHandThumb2
									{
										OFFSET 5.480453 -3.164139 3.164143
										CHANNELS 3 Xrotation Yrotation Zrotation
										JOINT newVegas:LeftHandThumb3
										{
											OFFSET 5.159721 -2.978973 2.978967
											CHANNELS 3 Xrotation Yrotation Zrotation
											End Site
											{
												OFFSET 2.494507 5.926697 1.738678
											}
										}
									}
								}
								JOINT newVegas:LeftHandIndex1
								{
									OFFSET 18.578728 -0.527832 5.208049
									CHANNELS 3 Xrotation Yrotation Zrotation
									JOINT newVegas:LeftHandIndex2
									{
										OFFSET 3.192009 0.000000 0.000000
										CHANNELS 3 Xrotation Yrotation Zrotation
										JOINT newVegas:LeftHandIndex3
										{
											OFFSET 3.835129 0.000000 0.000000
											CHANNELS 3 Xrotation Yrotation Zrotation
											End Site
											{
												OFFSET -0.034599 3.816971 0.371180
											}
										}
									}
								}
								JOINT newVegas:LeftHandMiddle1
								{
									OFFSET 18.476105 0.000000 0.000000
									CHANNELS 3 Xrotation Yrotation Zrotation
									JOINT newVegas:LeftHandMiddle2
									{
										OFFSET 3.324875 0.000000 0.000000
										CHANNELS 3 Xrotation Yrotation Zrotation
										JOINT newVegas:LeftHandMiddle3
										{
											OFFSET 4.596550 0.000000 0.000000
											CHANNELS 3 Xrotation Yrotation Zrotation
											End Site
											{
												OFFSET 0.057701 4.578827 0.399218
											}
										}
									}
								}
								JOINT newVegas:LeftHandRing1
								{
									OFFSET 17.732719 0.121887 -4.201567
									CHANNELS 3 Xrotation Yrotation Zrotation
									JOINT newVegas:LeftHandRing2
									{
										OFFSET 2.733170 0.000000 0.000000
										CHANNELS 3 Xrotation Yrotation Zrotation
										JOINT newVegas:LeftHandRing3
										{
											OFFSET 3.178268 0.000000 0.000000
											CHANNELS 3 Xrotation Yrotation Zrotation
											End Site
											{
												OFFSET 0.119102 3.170624 0.185394
											}
										}
									}
								}
								JOINT newVegas:LeftHandPinky1
								{
									OFFSET 15.989624 -0.606689 -7.535461
									CHANNELS 3 Xrotation Yrotation Zrotation
									JOINT newVegas:LeftHandPinky2
									{
										OFFSET 2.538986 0.000000 0.000000
										CHANNELS 3 Xrotation Yrotation Zrotation
										JOINT newVegas:LeftHandPinky3
										{
											OFFSET 2.593102 0.000000 0.000000
											CHANNELS 3 Xrotation Yrotation Zrotation
											End Site
											{
												OFFSET -0.150902 2.584198 0.152708
											}
										}
									}
								}
							}
							JOINT newVegas:Left_Sleeve
							{
								OFFSET 0.267448 -0.649796 0.577675
								CHANNELS 3 Xrotation Yrotation Zrotation
								End Site
								{
									OFFSET 0.000000 15.991241 0.000000
								}
							}
							JOINT newVegas:Left_CapeC
							{
								OFFSET 15.715958 -8.608795 -6.935905
								CHANNELS 3 Xrotation Yrotation Zrotation
								JOINT newVegas:Left_CapeC1
								{
									OFFSET 0.000000 -8.688499 0.000000
									CHANNELS 3 Xrotation Yrotation Zrotation
									End Site
									{
										OFFSET 0.000000 8.688499 0.000000
									}
								}
							}
						}
						JOINT newVegas:Left_CapeB
						{
							OFFSET 26.118385 -8.608795 -7.079235
							CHANNELS 3 Xrotation Yrotation Zrotation
							JOINT newVegas:Left_CapeB1
							{
								OFFSET 0.000000 -8.688499 0.000000
								CHANNELS 3 Xrotation Yrotation Zrotation
								End Site
								{
									OFFSET 0.000000 8.688499 0.000000
								}
							}
						}
						JOINT newVegas:Left_CapeA
						{
							OFFSET 5.115639 -8.608795 -10.395809
							CHANNELS 3 Xrotation Yrotation Zrotation
							JOINT newVegas:Left_CapeA1
							{
								OFFSET 0.000000 -8.688499 0.000000
								CHANNELS 3 Xrotation Yrotation Zrotation
								End Site
								{
									OFFSET 0.000000 8.688499 0.000000
								}
							}
						}
					}
				}
				JOINT newVegas:RightShoulder
				{
					OFFSET -15.263000 10.923401 -0.547700
					CHANNELS 3 Xrotation Yrotation Zrotation
					JOINT newVegas:RightArm
					{
						OFFSET -25.438599 -2.830597 -13.032500
						CHANNELS 3 Xrotation Yrotation Zrotation
						JOINT newVegas:RightForeArm
						{
							OFFSET -29.960503 0.000000 0.000000
							CHANNELS 3 Xrotation Yrotation Zrotation
							JOINT newVegas:RightHand
							{
								OFFSET -27.849251 0.000000 0.000000
								CHANNELS 3 Xrotation Yrotation Zrotation
								JOINT newVegas:RightHandThumb1
								{
									OFFSET -4.487587 -3.305161 6.305391
									CHANNELS 3 Xrotation Yrotation Zrotation
									JOINT newVegas:RightHandThumb2
									{
										OFFSET -5.480453 -3.164139 3.164143
										CHANNELS 3 Xrotation Yrotation Zrotation
										JOINT newVegas:RightHandThumb3
										{
											OFFSET -5.159721 -2.978973 2.978967
											CHANNELS 3 Xrotation Yrotation Zrotation
											End Site
											{
												OFFSET -2.494507 5.926697 1.738678
											}
										}
									}
								}
								JOINT newVegas:RightHandIndex1
								{
									OFFSET -18.578728 -0.527832 5.208049
									CHANNELS 3 Xrotation Yrotation Zrotation
									JOINT newVegas:RightHandIndex2
									{
										OFFSET -3.192009 0.000000 0.000000
										CHANNELS 3 Xrotation Yrotation Zrotation
										JOINT newVegas:RightHandIndex3
										{
											OFFSET -3.835129 0.000000 0.000000
											CHANNELS 3 Xrotation Yrotation Zrotation
											End Site
											{
												OFFSET 0.034599 3.816971 0.371180
											}
										}
									}
								}
								JOINT newVegas:RightHandMiddle1
								{
									OFFSET -18.476105 0.000000 0.000000
									CHANNELS 3 Xrotation Yrotation Zrotation
									JOINT newVegas:RightHandMiddle2
									{
										OFFSET -3.324875 0.000000 0.000000
										CHANNELS 3 Xrotation Yrotation Zrotation
										JOINT newVegas:RightHandMiddle3
										{
											OFFSET -4.596550 0.000000 0.000000
											CHANNELS 3 Xrotation Yrotation Zrotation
											End Site
											{
												OFFSET -0.057701 4.578827 0.399218
											}
										}
									}
								}
								JOINT newVegas:RightHandRing1
								{
									OFFSET -17.732719 0.121887 -4.201567
									CHANNELS 3 Xrotation Yrotation Zrotation
									JOINT newVegas:RightHandRing2
									{
										OFFSET -2.733170 0.000000 0.000000
										CHANNELS 3 Xrotation Yrotation Zrotation
										JOINT newVegas:RightHandRing3
										{
											OFFSET -3.178268 0.000000 0.000000
											CHANNELS 3 Xrotation Yrotation Zrotation
											End Site
											{
												OFFSET -0.119102 3.170624 0.185394
											}
										}
									}
								}
								JOINT newVegas:RightHandPinky1
								{
									OFFSET -15.989624 -0.606689 -7.535461
									CHANNELS 3 Xrotation Yrotation Zrotation
									JOINT newVegas:RightHandPinky2
									{
										OFFSET -2.538986 0.000000 0.000000
										CHANNELS 3 Xrotation Yrotation Zrotation
										JOINT newVegas:RightHandPinky3
										{
											OFFSET -2.593102 0.000000 0.000000
											CHANNELS 3 Xrotation Yrotation Zrotation
											End Site
											{
												OFFSET 0.150902 2.584198 0.152708
											}
										}
									}
								}
							}
							JOINT newVegas:Right_CapeC
							{
								OFFSET -15.715958 -8.608795 -6.935905
								CHANNELS 3 Xrotation Yrotation Zrotation
								JOINT newVegas:Right_CapeC1
								{
									OFFSET 0.000000 -8.688499 0.000000
									CHANNELS 3 Xrotation Yrotation Zrotation
									End Site
									{
										OFFSET 0.000000 8.688499 0.000000
									}
								}
							}
							JOINT newVegas:Right_Sleeve
							{
								OFFSET -0.267448 -0.649994 0.577675
								CHANNELS 3 Xrotation Yrotation Zrotation
								End Site
								{
									OFFSET 0.000000 15.991302 0.000000
								}
							}
						}
						JOINT newVegas:Right_CapeA
						{
							OFFSET -5.115540 -8.608795 -10.395824
							CHANNELS 3 Xrotation Yrotation Zrotation
							JOINT newVegas:Right_CapeA1
							{
								OFFSET 0.000000 -8.688499 0.000000
								CHANNELS 3 Xrotation Yrotation Zrotation
								End Site
								{
									OFFSET 0.000000 8.688499 0.000000
								}
							}
						}
						JOINT newVegas:Right_CapeB
						{
							OFFSET -26.118187 -8.608795 -7.079266
							CHANNELS 3 Xrotation Yrotation Zrotation
							JOINT newVegas:Right_CapeB1
							{
								OFFSET 0.000000 -8.688499 0.000000
								CHANNELS 3 Xrotation Yrotation Zrotation
								End Site
								{
									OFFSET 0.000000 8.688499 0.000000
								}
							}
						}
					}
				}
				JOINT newVegas:Left_Collar
				{
					OFFSET 18.625099 8.655502 8.828100
					CHANNELS 3 Xrotation Yrotation Zrotation
					JOINT newVegas:Left_Collar1
					{
						OFFSET 14.783401 10.540405 -1.259500
						CHANNELS 3 Xrotation Yrotation Zrotation
						End Site
						{
							OFFSET 0.000000 18.199875 0.000000
						}
					}
				}
				JOINT newVegas:Collar_Back
				{
					OFFSET 0.000000 15.630707 -20.132601
					CHANNELS 3 Xrotation Yrotation Zrotation
					End Site
					{
						OFFSET 0.000000 22.523010 0.000000
					}
				}
				JOINT newVegas:Left_Peck
				{
					OFFSET 17.239599 -5.132599 25.482599
					CHANNELS 3 Xrotation Yrotation Zrotation
					End Site
					{
						OFFSET 0.000000 22.523010 0.000000
					}
				}
				JOINT newVegas:Right_Peck
				{
					OFFSET -17.239599 -5.132202 25.482599
					CHANNELS 3 Xrotation Yrotation Zrotation
					End Site
					{
						OFFSET 0.000000 22.523010 0.000000
					}
				}
				JOINT newVegas:Right_Collar
				{
					OFFSET -18.625099 8.655792 8.828100
					CHANNELS 3 Xrotation Yrotation Zrotation
					JOINT newVegas:Right_Collar1
					{
						OFFSET -14.783401 10.539993 -1.259500
						CHANNELS 3 Xrotation Yrotation Zrotation
						End Site
						{
							OFFSET 0.000000 18.199631 0.000000
						}
					}
				}
			}
		}
		JOINT newVegas:Belly
		{
			OFFSET 0.000000 -6.540398 9.014299
			CHANNELS 3 Xrotation Yrotation Zrotation
			End Site
			{
				OFFSET 0.000000 11.566666 0.000000
			}
		}
	}
	JOINT newVegas:ElvisFacialAnim_Joint
	{
		OFFSET 1.000000 -95.330101 -8.825800
		CHANNELS 3 Xrotation Yrotation Zrotation
		End Site
		{
			OFFSET 0.000000 35.315800 0.000000
		}
	}
}
MOTION
Frames: 4
Frame Time: 0.033333
-2.783954 87.822449 2.837310 -6.078101 -42.937936 -3.789459 0.000000 -0.000003 -0.000000 -34.393073 2.849947 16.371268 38.633022 -14.745605 -0.131478 -1.804912 0.989434 -11.110820 -0.000000 0.000001 0.000000 -0.000000 0.000001 -0.000000 1.083405 -13.658501 -18.458193 33.744939 -7.728637 -0.245036 -25.563078 -6.500519 21.389675 -0.000000 0.000002 -0.000000 -0.000003 0.000001 -0.000000 5.850707 4.525945 -1.454927 11.836550 9.037620 -3.083972 11.836548 9.037626 -3.083974 -0.860933 -0.253298 0.048901 -0.860944 -0.253291 0.048898 0.000001 0.000000 0.000000 -0.860936 -0.253306 0.048901 -0.860864 -0.253302 0.048899 0.000000 0.000000 -0.000001 0.000001 0.000000 0.000001 1.392453 -0.696072 -7.877840 -14.260110 2.394323 -63.277085 9.865051 -47.524907 5.927928 16.172824 0.915179 18.795427 9.163610 4.814100 -5.499031 -0.335356 0.032563 0.783666 -0.000000 0.000000 -0.000001 -0.902000 -6.980938 -3.808417 0.033414 0.804250 -16.418979 -0.000001 0.000001 -0.000004 1.947873 9.683071 -14.539794 -0.456411 -1.565420 -21.881023 -0.000002 -0.000001 0.000002 2.605871 14.896808 -31.345268 -0.576841 -2.712397 -32.011526 0.000004 -0.000001 0.000001 4.170571 18.495022 -34.987350 -0.706800 -5.788646 -39.372912 -0.000000 -0.000003 -0.000001 -0.000002 0.000000 0.000000 -0.000002 0.000000 0.000000 -0.000003 0.000000 0.000000 0.000002 0.000001 0.000002 0.000002 0.000000 0.000002 0.000002 0.000001 0.000002 0.000002 -0.000000 0.000002 1.410917 9.461491 9.792749 1.220059 -24.270705 60.532948 -6.660693 41.858425 8.043816 6.225254 12.322312 11.673284 -8.895838 -4.903154 -0.383706 7.904823 -19.192492 -2.856857 -0.000000 -0.000002 -0.000001 -1.085500 -1.215484 4.525249 0.142130 -1.115569 16.942619 0.000001 0.000001 0.000000 -0.663636 -2.903901 12.731591 -0.660555 1.813460 30.578975 0.000000 0.000002 0.000001 2.423635 -7.404558 21.763269 -0.989699 3.764318 37.431120 -0.000000 0.000000 0.000007 3.481039 -10.055088 24.322729 -1.458321 7.872034 41.091951 0.000002 -0.000002 0.000002 -0.000000 0.000000 -0.000001 -0.000000 -0.000000 -0.000001 -0.000000 0.000000 0.000001 0.000000 -0.000001 -0.000000 0.000000 0.000000 0.000000 0.000000 -0.000001 -0.000000 0.000000 -0.000000 -0.000001 -0.000001 0.000001 0.000000 -0.000001 0.000001 0.000000 -0.000001 0.000001 0.000000 -0.000001 0.000001 0.000000 -0.000001 0.000001 0.000000 -0.000001 0.000001 0.000000 -0.000001 0.000001 0.000000 -0.000000 0.000001 -0.000000 0.000000 -0.000003 -0.000000 
-2.941050 87.890366 3.406935 -4.108347 -44.431695 -3.489639 -0.000000 -0.000003 -0.000000 -40.103650 0.189987 16.974024 43.873669 -13.244646 -0.015873 4.768642 0.253317 -11.334932 -0.000000 0.000001 -0.000000 -0.000000 0.000002 0.000001 -2.011439 -12.160072 -17.197141 35.414664 -10.443270 -1.333334 -23.032694 -6.177904 22.127689 0.000000 0.000002 -0.000000 -0.000000 -0.000001 -0.000003 6.029209 3.661943 -0.929851 12.148205 7.362398 -2.171048 12.148207 7.362372 -2.171044 -0.844256 0.081862 -0.097217 -0.844257 0.081876 -0.097224 0.000001 -0.000001 0.000000 -0.844261 0.081863 -0.097215 -0.844174 0.081862 -0.097218 -0.000001 -0.000001 0.000000 0.000001 -0.000001 0.000001 1.287543 -3.503886 -11.609384 -12.585938 7.958171 -59.394417 8.663514 -48.854489 9.118828 16.207421 1.583591 20.241110 13.853809 6.859738 -5.578805 -0.162213 -0.189188 1.587692 0.000000 0.000003 -0.000004 -0.371252 -6.669692 -4.473997 -0.550245 0.747632 -17.973303 -0.000001 -0.000002 0.000002 1.495333 5.461111 -17.091454 -0.719787 -0.935296 -16.892876 -0.000000 0.000000 -0.000001 1.922934 12.639743 -32.228340 -0.131764 -2.431630 -25.083714 -0.000002 -0.000001 -0.000001 4.092940 19.793122 -34.728281 -0.185025 -5.902200 -32.412072 0.000003 -0.000002 -0.000003 -0.000003 0.000002 -0.000000 -0.000003 0.000002 -0.000000 -0.000003 0.000003 -0.000000 0.000000 0.000003 -0.000000 0.000000 0.000002 -0.000000 0.000000 0.000003 -0.000000 0.000001 0.000002 -0.000000 1.052819 11.122438 12.102369 -6.741170 -16.611010 52.087938 2.756794 39.309586 2.318111 16.116046 6.254609 -2.696502 -5.229460 -4.556292 -2.986300 6.727218 -15.773875 -3.412603 0.000001 -0.000001 -0.000004 -0.810031 0.905455 5.042867 -0.688225 -0.486541 24.883539 -0.000001 -0.000000 0.000000 -0.852255 -0.913940 15.731394 -1.139583 1.730363 31.456375 0.000001 0.000002 -0.000000 2.089973 -7.158894 25.373521 -0.721448 3.822418 36.585799 -0.000000 0.000001 0.000001 4.019670 -13.479864 27.255699 -1.094083 8.184915 42.084241 -0.000000 0.000002 0.000000 0.000000 -0.000001 -0.000000 0.000000 -0.000000 -0.000000 0.000000 -0.000001 -0.000000 -0.000000 0.000000 -0.000000 -0.000000 0.000001 0.000001 -0.000000 0.000000 -0.000000 0.000000 0.000001 0.000001 -0.000000 -0.000001 0.000000 -0.000000 -0.000001 0.000000 -0.000000 -0.000001 0.000000 -0.000000 -0.000001 0.000000 -0.000000 -0.000001 0.000000 -0.000000 -0.000001 0.000000 -0.000000 -0.000001 0.000000 -0.000000 0.000001 -0.000000 -0.000000 -0.000003 -0.000000 
-2.846291 88.971954 3.628193 0.624985 -44.826487 -0.309577 -0.000000 -0.000001 -0.000000 -44.057842 -0.114842 16.342170 39.812736 -12.606560 -0.015770 16.164344 -1.007970 -11.992086 -0.000000 0.000000 -0.000000 -0.000000 -0.000001 -0.000000 -7.992249 -9.423546 -16.161609 36.676371 -15.604535 -3.216259 -15.634129 -5.178003 24.213700 -0.000000 0.000000 0.000000 0.000001 0.000002 -0.000003 6.191322 2.521804 -0.556935 12.455507 4.987994 -1.852740 12.455508 4.988006 -1.852745 -0.984414 0.340375 -0.196951 -0.984413 0.340386 -0.196960 -0.000003 0.000001 -0.000001 -0.984422 0.340385 -0.196955 -0.984315 0.340390 -0.196954 0.000001 0.000000 0.000000 -0.000003 0.000001 -0.000001 0.883293 -6.304742 -14.062409 -7.697958 13.884971 -57.271642 11.825849 -56.449656 15.319127 17.826661 4.517778 24.734039 18.462913 9.446248 -6.349530 0.111995 -0.469459 2.437125 0.000002 -0.000004 -0.000006 0.223023 -6.341537 -5.214124 -1.097400 0.845802 -19.709773 -0.000001 -0.000001 0.000002 0.550529 0.898657 -19.946464 -1.030585 -0.151908 -11.401477 -0.000002 0.000001 0.000002 1.085363 10.181149 -33.197762 0.299755 -2.110838 -17.443986 0.000002 0.000001 0.000001 3.990747 21.225110 -34.417607 0.343300 -6.059780 -24.735709 0.000001 -0.000005 0.000001 0.000002 -0.000001 0.000001 0.000002 -0.000001 0.000001 0.000001 -0.000000 0.000002 -0.000003 -0.000003 -0.000002 -0.000003 -0.000003 -0.000003 -0.000003 -0.000003 -0.000002 -0.000002 -0.000003 -0.000002 0.521559 12.758700 14.967385 -14.024635 -8.811649 45.546997 15.500674 38.716159 -4.677483 27.896714 1.074774 -16.447428 -1.069251 -4.414420 -5.756171 5.438991 -12.013437 -3.956042 0.000000 -0.000003 0.000001 -0.554543 3.249282 5.589647 -0.982329 -1.292910 19.320940 -0.000001 0.000000 -0.000001 -1.252977 1.101023 17.290424 -1.236337 0.793922 22.146014 -0.000000 0.000000 0.000000 1.812987 -7.107802 27.204297 -0.102792 3.371025 28.615105 0.000000 -0.000001 -0.000002 5.126085 -17.315487 28.945843 -0.156613 7.829425 31.146086 -0.000000 0.000003 -0.000001 -0.000000 -0.000001 0.000003 -0.000000 -0.000001 0.000001 0.000000 -0.000001 0.000003 -0.000002 -0.000003 -0.000001 -0.000002 -0.000002 -0.000001 -0.000002 -0.000003 -0.000001 -0.000002 -0.000002 -0.000001 -0.000001 -0.000000 -0.000000 -0.000001 -0.000000 -0.000000 -0.000001 -0.000000 -0.000000 -0.000001 -0.000000 -0.000000 -0.000001 -0.000000 -0.000000 -0.000001 -0.000000 -0.000000 -0.000001 -0.000000 -0.000000 -0.000000 0.000001 -0.000000 -0.000000 -0.000001 -0.000000 
-2.247036 90.416702 3.297854 9.176334 -42.780849 5.913424 0.000001 -0.000001 -0.000000 -50.646758 4.329248 15.677584 32.255521 -17.257274 -0.776701 33.217157 -2.203320 -10.666595 0.000002 0.000004 -0.000002 0.000001 0.000003 0.000000 -18.890626 -5.313515 -15.440162 38.918257 -22.554946 -5.113864 -3.295136 -2.688193 25.449107 0.000000 0.000001 -0.000000 -0.000000 0.000000 0.000000 6.012535 1.614878 -0.287597 12.080118 2.800345 -1.814339 12.080115 2.800354 -1.814335 -1.294336 0.386456 -0.252893 -1.294331 0.386480 -0.252908 -0.000002 -0.000003 -0.000000 -1.294348 0.386498 -0.252904 -1.294351 0.386417 -0.252892 -0.000000 -0.000001 0.000000 -0.000002 -0.000003 0.000000 0.408640 -8.831372 -16.003193 -2.218716 16.280816 -53.671418 29.657655 -65.921953 29.189589 24.492228 5.407422 26.499215 21.709669 11.648036 -7.479927 0.393115 -0.718012 3.084634 -0.000000 0.000002 -0.000004 0.705261 -6.090566 -5.811011 -1.436772 1.022665 -21.113998 -0.000000 0.000000 -0.000002 -0.541836 -2.657061 -22.297395 -1.289420 0.535093 -7.012236 0.000000 0.000000 -0.000002 0.351898 8.238229 -33.973474 0.597926 -1.850394 -11.329557 0.000001 -0.000001 0.000001 3.895583 22.371185 -34.149412 0.727542 -6.210283 -18.592268 0.000000 -0.000003 -0.000003 -0.000005 -0.000000 0.000002 -0.000005 -0.000000 0.000002 -0.000006 -0.000000 0.000002 0.000000 0.000000 -0.000000 0.000001 -0.000001 -0.000001 0.000000 0.000000 -0.000000 -0.000001 -0.000001 -0.000001 0.091454 13.400827 16.623378 -17.983494 -4.164650 41.126222 29.139038 43.119138 -12.256959 34.702327 -2.074166 -29.861734 2.338504 -4.476358 -7.882429 4.408822 -9.012137 -4.340122 -0.000000 -0.000006 0.000000 -0.385823 5.128147 6.010904 -1.080351 -2.362102 11.740277 -0.000003 0.000000 -0.000001 -1.733166 2.636443 18.169189 -1.345257 -0.212622 12.448675 -0.000003 -0.000000 -0.000001 1.623140 -7.127975 28.200920 0.381643 2.851619 20.698202 0.000003 -0.000001 -0.000001 6.378492 -20.310001 30.076496 0.549150 7.321206 19.772684 -0.000001 0.000002 0.000000 -0.000000 0.000000 -0.000001 -0.000001 -0.000001 -0.000001 -0.000000 0.000000 0.000001 -0.000001 0.000000 -0.000000 -0.000001 -0.000001 -0.000000 -0.000001 0.000000 -0.000000 -0.000000 -0.000001 -0.000000 0.000001 -0.000001 -0.000001 0.000001 -0.000001 -0.000001 0.000001 -0.000001 -0.000001 0.000001 -0.000001 -0.000001 0.000001 -0.000001 -0.000001 0.000001 -0.000001 -0.000001 0.000001 -0.000001 -0.000001 -0.000000 0.000001 -0.000001 0.000001 -0.000001 -0.000000 
